<?xml version="1.0" encoding="utf-8"?>
<!-- Generator: Adobe Illustrator 19.2.0, SVG Export Plug-In . SVG Version: 6.00 Build 0)  -->
<svg version="1.1" id="Layer_1" xmlns="http://www.w3.org/2000/svg" xmlns:xlink="http://www.w3.org/1999/xlink" x="0px" y="0px"
	 viewBox="0 0 86 86" enable-background="new 0 0 86 86" xml:space="preserve">
<path fill="#73E9FF" d="M43,0.3C19.417,0.3,0.3,19.418,0.3,43c0,0.408,0,41.277,0,41.277c0,0.786,0.637,1.423,1.423,1.423h82.553
	c0.786,0,1.423-0.637,1.423-1.423c0,0,0-40.908,0-41.277C85.7,19.418,66.583,0.3,43,0.3z"/>
<path fill="#E60000" stroke="#E70006" stroke-miterlimit="10" d="M79.5,76h-73l0-36c0-16.5,13.5-30,30-30h13c16.5,0,30,13.5,30,30
	V76z"/>
<g id="Слой_2">
	<circle stroke="#000000" stroke-linecap="round" stroke-miterlimit="10" cx="18" cy="76" r="7.5"/>
	
		<ellipse fill="#EDEDED" stroke="#1D1D1B" stroke-linecap="round" stroke-miterlimit="10" cx="18" cy="76.35" rx="3.814" ry="3.909"/>
</g>
<g id="Слой_3">
	<circle stroke="#000000" stroke-linecap="round" stroke-miterlimit="10" cx="68" cy="76" r="7.5"/>
	
		<ellipse fill="#EDEDED" stroke="#1D1D1B" stroke-linecap="round" stroke-miterlimit="10" cx="68" cy="76.35" rx="3.814" ry="3.909"/>
</g>
<linearGradient id="SVGID_1_" gradientUnits="userSpaceOnUse" x1="10.5" y1="35.0001" x2="25.5" y2="35.0001">
	<stop  offset="0" style="stop-color:#FFFFFF"/>
	<stop  offset="0.0996" style="stop-color:#F4F8FF"/>
	<stop  offset="0.274" style="stop-color:#D7E6FF"/>
	<stop  offset="0.5024" style="stop-color:#A8C8FF"/>
	<stop  offset="0.7729" style="stop-color:#68A0FF"/>
	<stop  offset="1" style="stop-color:#2C7AFF"/>
</linearGradient>
<path fill="url(#SVGID_1_)" stroke="#231F20" stroke-miterlimit="10" d="M25.5,45h-15V35c0-5.5,4.5-10,10-10h5V45z"/>
<linearGradient id="SVGID_2_" gradientUnits="userSpaceOnUse" x1="60.5" y1="35" x2="75.5" y2="35">
	<stop  offset="0" style="stop-color:#FFFFFF"/>
	<stop  offset="0.0996" style="stop-color:#F4F8FF"/>
	<stop  offset="0.274" style="stop-color:#D7E6FF"/>
	<stop  offset="0.5024" style="stop-color:#A8C8FF"/>
	<stop  offset="0.7729" style="stop-color:#68A0FF"/>
	<stop  offset="1" style="stop-color:#2C7AFF"/>
</linearGradient>
<path fill="url(#SVGID_2_)" stroke="#231F20" stroke-miterlimit="10" d="M75.5,45h-15V25h5c5.523,0,10,4.477,10,10V45z"/>
<path fill="#E60000" d="M79.75,76.5h-0.5v-12h0.5c1.925,0,3.5,1.575,3.5,3.5v5C83.25,74.925,81.675,76.5,79.75,76.5z"/>
<g id="Слой_2_1_">
	<path fill="#231F20" stroke="#231F20" stroke-width="2" stroke-miterlimit="10" d="M45,65H30V25h15c6.6,0,12,5.4,12,12v16
		C57,59.6,51.6,65,45,65z"/>
	<line fill="none" stroke="#231F20" stroke-width="2" stroke-miterlimit="10" x1="43" y1="25" x2="43" y2="64"/>
	<rect x="31" y="46" fill="#E60000" width="11" height="18"/>
	<path fill="#E60000" d="M44,64L44,64l0-18h12v6C56,58.6,50.6,64,44,64z"/>
	<linearGradient id="SVGID_3_" gradientUnits="userSpaceOnUse" x1="44" y1="35" x2="56" y2="35">
		<stop  offset="0" style="stop-color:#6CA3C9"/>
		<stop  offset="0.6368" style="stop-color:#458AEA"/>
		<stop  offset="1" style="stop-color:#2C7AFF"/>
	</linearGradient>
	<path fill="url(#SVGID_3_)" d="M56,44H44V26h0c6.627,0,12,5.373,12,12V44z"/>
	<linearGradient id="SVGID_4_" gradientUnits="userSpaceOnUse" x1="31" y1="35" x2="42" y2="35">
		<stop  offset="0" style="stop-color:#FFFFFF"/>
		<stop  offset="0.1194" style="stop-color:#FAFCFF"/>
		<stop  offset="0.257" style="stop-color:#ECF3FF"/>
		<stop  offset="0.4036" style="stop-color:#D5E5FF"/>
		<stop  offset="0.5566" style="stop-color:#B5D0FF"/>
		<stop  offset="0.7145" style="stop-color:#8BB6FF"/>
		<stop  offset="0.8741" style="stop-color:#5996FF"/>
		<stop  offset="1" style="stop-color:#2C7AFF"/>
	</linearGradient>
	<rect x="31" y="26" fill="url(#SVGID_4_)" width="11" height="18"/>
</g>
</svg>
